<svg width="260" height="70" viewBox="0 0 260 70" fill="none" xmlns="http://www.w3.org/2000/svg">
<rect width="260" height="70" rx="8" fill="#3C545F"/>
<rect x="13.8782" y="8.53336" width="232.244" height="52" rx="6" stroke="#BCCDD1" stroke-width="4"/>
<g style="mix-blend-mode:luminosity">
<path d="M70.6989 22.0775V42.4412H68.233V24.265H57.9716V42.4412H55.5057V22.0775H70.6989ZM81.5593 42.7593C80.1805 42.7593 78.9708 42.4312 77.93 41.775C76.896 41.1187 76.0872 40.2006 75.5039 39.0207C74.9272 37.8408 74.6388 36.462 74.6388 34.8843C74.6388 33.2934 74.9272 31.9047 75.5039 30.7182C76.0872 29.5316 76.896 28.6102 77.93 27.9539C78.9708 27.2977 80.1805 26.9696 81.5593 26.9696C82.9381 26.9696 84.1445 27.2977 85.1786 27.9539C86.2193 28.6102 87.0281 29.5316 87.6048 30.7182C88.1881 31.9047 88.4798 33.2934 88.4798 34.8843C88.4798 36.462 88.1881 37.8408 87.6048 39.0207C87.0281 40.2006 86.2193 41.1187 85.1786 41.775C84.1445 42.4312 82.9381 42.7593 81.5593 42.7593ZM81.5593 40.6514C82.6067 40.6514 83.4684 40.3829 84.1445 39.846C84.8207 39.3091 85.3211 38.6031 85.646 37.7281C85.9708 36.8531 86.1332 35.9052 86.1332 34.8843C86.1332 33.8635 85.9708 32.9123 85.646 32.0307C85.3211 31.149 84.8207 30.4364 84.1445 29.8929C83.4684 29.3493 82.6067 29.0775 81.5593 29.0775C80.512 29.0775 79.6502 29.3493 78.9741 29.8929C78.2979 30.4364 77.7975 31.149 77.4727 32.0307C77.1478 32.9123 76.9854 33.8635 76.9854 34.8843C76.9854 35.9052 77.1478 36.8531 77.4727 37.7281C77.7975 38.6031 78.2979 39.3091 78.9741 39.846C79.6502 40.3829 80.512 40.6514 81.5593 40.6514ZM98.2663 42.7593C96.8345 42.7593 95.6016 42.4213 94.5675 41.7451C93.5334 41.069 92.7379 40.1377 92.1811 38.9511C91.6243 37.7646 91.3459 36.409 91.3459 34.8843C91.3459 33.3332 91.6309 31.9644 92.201 30.7778C92.7777 29.5846 93.5798 28.6533 94.6072 27.9838C95.6413 27.3076 96.8478 26.9696 98.2266 26.9696C99.3004 26.9696 100.268 27.1684 101.13 27.5662C101.992 27.9639 102.698 28.5207 103.248 29.2366C103.798 29.9525 104.139 30.7878 104.272 31.7423H101.925C101.746 31.0463 101.349 30.4298 100.732 29.8929C100.122 29.3493 99.3004 29.0775 98.2663 29.0775C97.3516 29.0775 96.5495 29.3162 95.8601 29.7934C95.1773 30.2641 94.6437 30.9303 94.2592 31.792C93.8814 32.6471 93.6925 33.6514 93.6925 34.8048C93.6925 35.9847 93.8781 37.0122 94.2493 37.8872C94.6271 38.7622 95.1574 39.4416 95.8402 39.9255C96.5296 40.4094 97.3383 40.6514 98.2663 40.6514C98.8762 40.6514 99.4297 40.5453 99.9268 40.3332C100.424 40.1211 100.845 39.8162 101.19 39.4184C101.534 39.0207 101.78 38.5434 101.925 37.9866H104.272C104.139 38.8881 103.811 39.7002 103.288 40.4227C102.771 41.1386 102.085 41.7087 101.229 42.1329C100.381 42.5505 99.3932 42.7593 98.2663 42.7593ZM119.475 27.1684V42.4412H117.129V27.1684H119.475ZM118.56 34.4468V36.6343C118.03 36.8332 117.503 37.0089 116.979 37.1613C116.456 37.3072 115.906 37.4232 115.329 37.5093C114.752 37.5889 114.119 37.6287 113.43 37.6287C111.7 37.6287 110.311 37.1613 109.263 36.2267C108.223 35.292 107.702 33.89 107.702 32.0207V27.1287H110.049V32.0207C110.049 32.8029 110.198 33.4459 110.496 33.9497C110.795 34.4535 111.199 34.828 111.71 35.0733C112.22 35.3185 112.793 35.4412 113.43 35.4412C114.424 35.4412 115.322 35.3517 116.124 35.1727C116.933 34.9871 117.745 34.7451 118.56 34.4468ZM126.127 38.9809L133.485 27.1684H136.19V42.4412H133.843V30.6287L126.525 42.4412H123.781V27.1684H126.127V38.9809ZM138.409 29.3559V27.1684H150.819V29.3559H145.807V42.4412H143.461V29.3559H138.409ZM157.943 42.7991C156.975 42.7991 156.097 42.6168 155.308 42.2522C154.519 41.881 153.893 41.3474 153.429 40.6514C152.965 39.9487 152.733 39.1003 152.733 38.1059C152.733 37.2309 152.905 36.5217 153.25 35.9781C153.594 35.4279 154.055 34.997 154.632 34.6855C155.208 34.3739 155.845 34.1419 156.541 33.9895C157.243 33.8304 157.949 33.7044 158.659 33.6116C159.587 33.4923 160.339 33.4028 160.916 33.3432C161.499 33.2769 161.923 33.1675 162.189 33.015C162.46 32.8626 162.596 32.5974 162.596 32.2196V32.14C162.596 31.159 162.328 30.3967 161.791 29.8531C161.261 29.3095 160.455 29.0378 159.375 29.0378C158.254 29.0378 157.376 29.283 156.74 29.7735C156.103 30.2641 155.656 30.7878 155.397 31.3446L153.17 30.5491C153.568 29.6211 154.098 28.8985 154.761 28.3815C155.431 27.8578 156.16 27.4932 156.949 27.2878C157.744 27.0756 158.526 26.9696 159.295 26.9696C159.786 26.9696 160.349 27.0292 160.985 27.1485C161.628 27.2612 162.248 27.4966 162.845 27.8545C163.448 28.2125 163.949 28.7527 164.346 29.4753C164.744 30.1978 164.943 31.1656 164.943 32.3787V42.4412H162.596V40.373H162.477C162.318 40.7044 162.053 41.0591 161.681 41.4369C161.31 41.8147 160.816 42.1362 160.2 42.4014C159.583 42.6665 158.831 42.7991 157.943 42.7991ZM158.301 40.6912C159.229 40.6912 160.011 40.5089 160.647 40.1443C161.29 39.7797 161.774 39.3091 162.099 38.7324C162.431 38.1557 162.596 37.5491 162.596 36.9128V34.765C162.497 34.8843 162.278 34.9937 161.94 35.0932C161.609 35.186 161.224 35.2688 160.787 35.3417C160.356 35.408 159.935 35.4677 159.524 35.5207C159.119 35.5671 158.791 35.6069 158.539 35.64C157.93 35.7196 157.359 35.8488 156.829 36.0278C156.306 36.2002 155.881 36.462 155.556 36.8133C155.238 37.158 155.079 37.6287 155.079 38.2253C155.079 39.0406 155.381 39.6571 155.984 40.0747C156.594 40.4857 157.366 40.6912 158.301 40.6912ZM167.148 29.3559V27.1684H179.557V29.3559H174.545V42.4412H172.199V29.3559H167.148ZM185.008 32.6968H189.383C191.173 32.6968 192.542 33.1509 193.49 34.0591C194.438 34.9672 194.912 36.1173 194.912 37.5093C194.912 38.4241 194.699 39.256 194.275 40.0051C193.851 40.7475 193.228 41.3408 192.406 41.7849C191.584 42.2224 190.576 42.4412 189.383 42.4412H182.98V27.1684H185.326V40.2537H189.383C190.311 40.2537 191.074 40.0084 191.67 39.5179C192.267 39.0273 192.565 38.3976 192.565 37.6287C192.565 36.8199 192.267 36.1604 191.67 35.65C191.074 35.1396 190.311 34.8843 189.383 34.8843H185.008V32.6968Z" fill="#BCCDD1"/>
</g>
</svg>
