<svg width="220" height="61" viewBox="0 0 220 61" fill="none" xmlns="http://www.w3.org/2000/svg">
<rect y="0.5" width="220" height="60" rx="8" fill="#3C545F"/>
<rect x="12.0508" y="8.10001" width="195.898" height="44" rx="6" stroke="#BCCDD1" stroke-width="4"/>
<g style="mix-blend-mode:luminosity">
<path d="M68.642 21.9545V36.5H66.8807V23.517H59.5511V36.5H57.7898V21.9545H68.642ZM76.3995 36.7273C75.4147 36.7273 74.5505 36.4929 73.8072 36.0241C73.0685 35.5554 72.4909 34.8996 72.0742 34.0568C71.6623 33.214 71.4563 32.2292 71.4563 31.1023C71.4563 29.9659 71.6623 28.974 72.0742 28.1264C72.4909 27.2789 73.0685 26.6207 73.8072 26.152C74.5505 25.6832 75.4147 25.4489 76.3995 25.4489C77.3844 25.4489 78.2461 25.6832 78.9847 26.152C79.7281 26.6207 80.3058 27.2789 80.7177 28.1264C81.1344 28.974 81.3427 29.9659 81.3427 31.1023C81.3427 32.2292 81.1344 33.214 80.7177 34.0568C80.3058 34.8996 79.7281 35.5554 78.9847 36.0241C78.2461 36.4929 77.3844 36.7273 76.3995 36.7273ZM76.3995 35.2216C77.1476 35.2216 77.7631 35.0298 78.2461 34.6463C78.729 34.2628 79.0865 33.7585 79.3185 33.1335C79.5505 32.5085 79.6665 31.8314 79.6665 31.1023C79.6665 30.3731 79.5505 29.6937 79.3185 29.0639C79.0865 28.4342 78.729 27.9252 78.2461 27.5369C77.7631 27.1487 77.1476 26.9545 76.3995 26.9545C75.6514 26.9545 75.0359 27.1487 74.5529 27.5369C74.07 27.9252 73.7125 28.4342 73.4805 29.0639C73.2485 29.6937 73.1325 30.3731 73.1325 31.1023C73.1325 31.8314 73.2485 32.5085 73.4805 33.1335C73.7125 33.7585 74.07 34.2628 74.5529 34.6463C75.0359 35.0298 75.6514 35.2216 76.3995 35.2216ZM88.3331 36.7273C87.3104 36.7273 86.4297 36.4858 85.6911 36.0028C84.9524 35.5199 84.3842 34.8546 83.9865 34.0071C83.5888 33.1596 83.3899 32.1913 83.3899 31.1023C83.3899 29.9943 83.5935 29.0166 84.0007 28.169C84.4126 27.3168 84.9856 26.6515 85.7195 26.1733C86.4581 25.6903 87.3198 25.4489 88.3047 25.4489C89.0717 25.4489 89.763 25.5909 90.3786 25.875C90.9941 26.1591 91.4983 26.5568 91.8913 27.0682C92.2843 27.5795 92.5282 28.1761 92.6229 28.858H90.9467C90.8189 28.3608 90.5348 27.9205 90.0945 27.5369C89.6589 27.1487 89.0717 26.9545 88.3331 26.9545C87.6797 26.9545 87.1068 27.125 86.6143 27.4659C86.1267 27.8021 85.7455 28.2779 85.4709 28.8935C85.201 29.5043 85.0661 30.2216 85.0661 31.0455C85.0661 31.8883 85.1986 32.6222 85.4638 33.2472C85.7337 33.8722 86.1125 34.3575 86.6001 34.7031C87.0926 35.0488 87.6702 35.2216 88.3331 35.2216C88.7687 35.2216 89.1641 35.1458 89.5192 34.9943C89.8743 34.8428 90.175 34.625 90.4212 34.3409C90.6674 34.0568 90.8426 33.7159 90.9467 33.3182H92.6229C92.5282 33.9621 92.2938 34.5421 91.9197 35.0582C91.5504 35.5696 91.0604 35.9768 90.4496 36.2798C89.8435 36.5781 89.138 36.7273 88.3331 36.7273ZM103.482 25.5909V36.5H101.806V25.5909H103.482ZM102.829 30.7898V32.3523C102.45 32.4943 102.074 32.6198 101.7 32.7287C101.326 32.8329 100.933 32.9157 100.521 32.9773C100.109 33.0341 99.6565 33.0625 99.1641 33.0625C97.9283 33.0625 96.9363 32.7287 96.1882 32.0611C95.4448 31.3935 95.0732 30.392 95.0732 29.0568V25.5625H96.7493V29.0568C96.7493 29.6155 96.8558 30.0748 97.0689 30.4347C97.282 30.7945 97.5708 31.062 97.9354 31.2372C98.3 31.4124 98.7095 31.5 99.1641 31.5C99.8743 31.5 100.516 31.4361 101.089 31.3082C101.666 31.1757 102.246 31.0028 102.829 30.7898ZM108.234 34.0284L113.489 25.5909H115.421V36.5H113.745V28.0625L108.518 36.5H106.558V25.5909H108.234V34.0284ZM117.007 27.1534V25.5909H125.87V27.1534H122.291V36.5H120.615V27.1534H117.007ZM130.959 36.7557C130.268 36.7557 129.641 36.6255 129.077 36.3651C128.514 36.0999 128.066 35.7188 127.735 35.2216C127.403 34.7197 127.238 34.1136 127.238 33.4034C127.238 32.7784 127.361 32.2718 127.607 31.8835C127.853 31.4905 128.182 31.1828 128.594 30.9602C129.006 30.7377 129.461 30.572 129.958 30.4631C130.46 30.3494 130.964 30.2595 131.471 30.1932C132.133 30.108 132.671 30.044 133.083 30.0014C133.499 29.9541 133.802 29.8759 133.992 29.767C134.186 29.6581 134.283 29.4687 134.283 29.1989V29.142C134.283 28.4413 134.091 27.8968 133.708 27.5085C133.329 27.1203 132.754 26.9261 131.982 26.9261C131.182 26.9261 130.554 27.1013 130.1 27.4517C129.645 27.8021 129.326 28.1761 129.141 28.5739L127.55 28.0057C127.834 27.3428 128.213 26.8267 128.686 26.4574C129.165 26.0833 129.685 25.8229 130.249 25.6761C130.817 25.5246 131.376 25.4489 131.925 25.4489C132.275 25.4489 132.678 25.4915 133.132 25.5767C133.592 25.6572 134.034 25.8253 134.461 26.081C134.891 26.3366 135.249 26.7225 135.533 27.2386C135.817 27.7547 135.959 28.446 135.959 29.3125V36.5H134.283V35.0227H134.198C134.084 35.2595 133.895 35.5128 133.63 35.7827C133.364 36.0526 133.012 36.2822 132.571 36.4716C132.131 36.661 131.594 36.7557 130.959 36.7557ZM131.215 35.25C131.878 35.25 132.436 35.1198 132.891 34.8594C133.35 34.599 133.696 34.2628 133.928 33.8509C134.165 33.4389 134.283 33.0057 134.283 32.5511V31.017C134.212 31.1023 134.056 31.1804 133.814 31.2514C133.578 31.3177 133.303 31.3769 132.99 31.429C132.683 31.4763 132.382 31.5189 132.088 31.5568C131.8 31.59 131.565 31.6184 131.385 31.642C130.95 31.6989 130.542 31.7912 130.164 31.919C129.79 32.0421 129.487 32.2292 129.255 32.4801C129.027 32.7263 128.914 33.0625 128.914 33.4886C128.914 34.071 129.129 34.5114 129.56 34.8097C129.996 35.1032 130.547 35.25 131.215 35.25ZM137.534 27.1534V25.5909H146.398V27.1534H142.818V36.5H141.142V27.1534H137.534ZM150.292 29.5398H153.417C154.695 29.5398 155.673 29.8641 156.35 30.5128C157.027 31.1615 157.365 31.983 157.365 32.9773C157.365 33.6307 157.214 34.2249 156.911 34.7599C156.608 35.2902 156.163 35.714 155.576 36.0312C154.989 36.3438 154.269 36.5 153.417 36.5H148.843V25.5909H150.519V34.9375H153.417C154.079 34.9375 154.624 34.7623 155.05 34.4119C155.476 34.0616 155.689 33.6117 155.689 33.0625C155.689 32.4848 155.476 32.0137 155.05 31.6491C154.624 31.2846 154.079 31.1023 153.417 31.1023H150.292V29.5398Z" fill="#BCCDD1"/>
</g>
</svg>
