<svg width="134" height="35" viewBox="0 0 134 35" fill="none" xmlns="http://www.w3.org/2000/svg">
<rect x="0.830566" y="0.59668" width="132.645" height="33.5412" rx="8" fill="#3C545F"/>
<rect x="8.89062" y="5.72725" width="116.525" height="22.8329" rx="6" stroke="#BCCDD1" stroke-width="4"/>
<g style="mix-blend-mode:luminosity">
<path d="M37.3514 11.0863V21.9954H36.0304V12.2582H30.5332V21.9954H29.2122V11.0863H37.3514ZM43.1695 22.1659C42.4309 22.1659 41.7828 21.9901 41.2253 21.6385C40.6713 21.287 40.238 20.7951 39.9255 20.163C39.6166 19.5309 39.4621 18.7923 39.4621 17.9471C39.4621 17.0949 39.6166 16.3509 39.9255 15.7152C40.238 15.0796 40.6713 14.586 41.2253 14.2344C41.7828 13.8829 42.4309 13.7071 43.1695 13.7071C43.9081 13.7071 44.5544 13.8829 45.1084 14.2344C45.6659 14.586 46.0992 15.0796 46.4081 15.7152C46.7206 16.3509 46.8769 17.0949 46.8769 17.9471C46.8769 18.7923 46.7206 19.5309 46.4081 20.163C46.0992 20.7951 45.6659 21.287 45.1084 21.6385C44.5544 21.9901 43.9081 22.1659 43.1695 22.1659ZM43.1695 21.0366C43.7306 21.0366 44.1922 20.8928 44.5544 20.6052C44.9167 20.3175 45.1848 19.9393 45.3588 19.4706C45.5328 19.0018 45.6198 18.494 45.6198 17.9471C45.6198 17.4003 45.5328 16.8907 45.3588 16.4184C45.1848 15.9461 44.9167 15.5643 44.5544 15.2731C44.1922 14.9819 43.7306 14.8363 43.1695 14.8363C42.6084 14.8363 42.1468 14.9819 41.7846 15.2731C41.4223 15.5643 41.1542 15.9461 40.9802 16.4184C40.8062 16.8907 40.7192 17.4003 40.7192 17.9471C40.7192 18.494 40.8062 19.0018 40.9802 19.4706C41.1542 19.9393 41.4223 20.3175 41.7846 20.6052C42.1468 20.8928 42.6084 21.0366 43.1695 21.0366ZM52.1197 22.1659C51.3527 22.1659 50.6921 21.9848 50.1382 21.6226C49.5842 21.2603 49.158 20.7614 48.8598 20.1258C48.5615 19.4901 48.4123 18.7639 48.4123 17.9471C48.4123 17.1162 48.565 16.3829 48.8704 15.7472C49.1794 15.108 49.609 14.6091 50.1595 14.2504C50.7134 13.8882 51.3598 13.7071 52.0984 13.7071C52.6737 13.7071 53.1921 13.8136 53.6538 14.0267C54.1154 14.2397 54.4936 14.538 54.7884 14.9216C55.0831 15.3051 55.266 15.7525 55.337 16.2639H54.0799C53.984 15.891 53.771 15.5608 53.4407 15.2731C53.114 14.9819 52.6737 14.8363 52.1197 14.8363C51.6296 14.8363 51.2 14.9642 50.8306 15.2199C50.4649 15.472 50.179 15.8289 49.973 16.2905C49.7706 16.7486 49.6694 17.2866 49.6694 17.9045C49.6694 18.5366 49.7688 19.087 49.9677 19.5558C50.1701 20.0245 50.4542 20.3885 50.82 20.6478C51.1893 20.907 51.6225 21.0366 52.1197 21.0366C52.4464 21.0366 52.7429 20.9798 53.0093 20.8662C53.2756 20.7525 53.5011 20.5892 53.6857 20.3761C53.8704 20.163 54.0018 19.9074 54.0799 19.6091H55.337C55.266 20.092 55.0902 20.527 54.8097 20.9141C54.5327 21.2976 54.1652 21.603 53.7071 21.8303C53.2525 22.054 52.7234 22.1659 52.1197 22.1659ZM63.4816 13.8136V21.9954H62.2245V13.8136H63.4816ZM62.9915 17.7128V18.8846C62.7074 18.9912 62.4251 19.0853 62.1446 19.1669C61.864 19.2451 61.5693 19.3072 61.2603 19.3534C60.9514 19.396 60.6122 19.4173 60.2429 19.4173C59.3161 19.4173 58.5721 19.1669 58.011 18.6662C57.4535 18.1655 57.1747 17.4145 57.1747 16.413V13.7923H58.4318V16.413C58.4318 16.8321 58.5117 17.1765 58.6715 17.4464C58.8313 17.7163 59.048 17.9169 59.3214 18.0483C59.5948 18.1797 59.902 18.2454 60.2429 18.2454C60.7756 18.2454 61.2568 18.1975 61.6865 18.1016C62.1197 18.0022 62.5547 17.8726 62.9915 17.7128ZM67.0451 20.1417L70.9869 13.8136H72.4357V21.9954H71.1786V15.6673L67.2582 21.9954H65.788V13.8136H67.0451V20.1417ZM73.6249 14.9855V13.8136H80.2727V14.9855H77.588V21.9954H76.3309V14.9855H73.6249ZM84.0892 22.1872C83.5708 22.1872 83.1003 22.0895 82.6777 21.8942C82.2551 21.6954 81.9195 21.4095 81.6709 21.0366C81.4223 20.6602 81.2981 20.2057 81.2981 19.673C81.2981 19.2042 81.3904 18.8243 81.575 18.5331C81.7597 18.2383 82.0065 18.0075 82.3155 17.8406C82.6244 17.6737 82.9653 17.5494 83.3382 17.4677C83.7146 17.3825 84.0928 17.315 84.4728 17.2653C84.9699 17.2014 85.373 17.1535 85.6819 17.1215C85.9944 17.086 86.2217 17.0274 86.3637 16.9457C86.5093 16.864 86.5821 16.722 86.5821 16.5196V16.477C86.5821 15.9514 86.4383 15.543 86.1507 15.2518C85.8666 14.9606 85.4351 14.815 84.8563 14.815C84.2561 14.815 83.7856 14.9464 83.4447 15.2092C83.1038 15.472 82.8641 15.7525 82.7256 16.0508L81.5324 15.6247C81.7455 15.1275 82.0296 14.7405 82.3847 14.4635C82.7434 14.1829 83.134 13.9876 83.5566 13.8775C83.9827 13.7639 84.4017 13.7071 84.8137 13.7071C85.0765 13.7071 85.3783 13.739 85.7192 13.803C86.0637 13.8633 86.3957 13.9894 86.7153 14.1812C87.0385 14.3729 87.3066 14.6623 87.5196 15.0494C87.7327 15.4365 87.8392 15.9549 87.8392 16.6048V21.9954H86.5821V20.8875H86.5182C86.433 21.065 86.2909 21.255 86.0921 21.4574C85.8932 21.6598 85.6287 21.8321 85.2984 21.9741C84.9682 22.1162 84.5651 22.1872 84.0892 22.1872ZM84.281 21.0579C84.7782 21.0579 85.1972 20.9603 85.5381 20.765C85.8826 20.5696 86.1418 20.3175 86.3158 20.0086C86.4934 19.6996 86.5821 19.3747 86.5821 19.0338V17.8832C86.5289 17.9471 86.4117 18.0057 86.2306 18.059C86.053 18.1087 85.8471 18.1531 85.6127 18.1922C85.3819 18.2277 85.1564 18.2596 84.9362 18.288C84.7196 18.3129 84.5438 18.3342 84.4088 18.352C84.0821 18.3946 83.7767 18.4638 83.4927 18.5597C83.2121 18.652 82.9848 18.7923 82.8108 18.9805C82.6404 19.1652 82.5552 19.4173 82.5552 19.7369C82.5552 20.1737 82.7167 20.504 83.0399 20.7277C83.3666 20.9478 83.7803 21.0579 84.281 21.0579ZM89.0204 14.9855V13.8136H95.6682V14.9855H92.9835V21.9954H91.7264V14.9855H89.0204ZM98.5885 16.7753H100.932C101.891 16.7753 102.624 17.0185 103.132 17.505C103.64 17.9915 103.894 18.6076 103.894 19.3534C103.894 19.8434 103.78 20.2891 103.553 20.6904C103.326 21.0881 102.992 21.4059 102.552 21.6439C102.111 21.8782 101.571 21.9954 100.932 21.9954H97.5019V13.8136H98.759V20.8236H100.932C101.429 20.8236 101.838 20.6922 102.157 20.4294C102.477 20.1666 102.637 19.8292 102.637 19.4173C102.637 18.9841 102.477 18.6307 102.157 18.3573C101.838 18.0839 101.429 17.9471 100.932 17.9471H98.5885V16.7753Z" fill="#BCCDD1"/>
</g>
</svg>
