<svg width="117" height="117" viewBox="0 0 117 117" fill="none" xmlns="http://www.w3.org/2000/svg">
<path d="M0 10C0 4.47715 4.47715 0 10 0H107C112.523 0 117 4.47715 117 10V107C117 112.523 112.523 117 107 117H10C4.47715 117 0 112.523 0 107V10Z" fill="#3C545F"/>
<path d="M18 8.5H101C105.694 8.5 109.5 12.3056 109.5 17V100C109.5 104.694 105.694 108.5 101 108.5H18C13.3056 108.5 9.5 104.694 9.5 100V17C9.5 12.3056 13.3056 8.5 18 8.5Z" stroke="#BCCDD1" stroke-width="3"/>
<path fill-rule="evenodd" clip-rule="evenodd" d="M32.3069 55.3512C49.1243 48.0241 60.3386 43.1936 65.9497 40.8598C81.9706 34.1962 85.2995 33.0386 87.4693 33.0004C87.9465 32.992 89.0136 33.1103 89.7048 33.6711C90.2884 34.1447 90.449 34.7844 90.5258 35.2334C90.6027 35.6824 90.6983 36.7052 90.6223 37.5044C89.7541 46.6264 85.9975 68.763 84.0864 78.9797C83.2777 83.3028 81.6854 84.7523 80.1439 84.8942C76.7938 85.2025 74.2499 82.6802 71.0051 80.5533C65.9278 77.225 63.0594 75.1531 58.1309 71.9053C52.4352 68.152 56.1275 66.089 59.3735 62.7176C60.2229 61.8353 74.9836 48.4094 75.2693 47.1915C75.305 47.0392 75.3382 46.4714 75.0008 46.1716C74.6635 45.8717 74.1657 45.9743 73.8064 46.0558C73.2972 46.1714 65.186 51.5326 49.4729 62.1393C47.1706 63.7203 45.0852 64.4906 43.2168 64.4502C41.157 64.4057 37.1948 63.2856 34.2493 62.3281C30.6365 61.1537 27.7651 60.5328 28.0152 58.5384C28.1454 57.4996 29.576 56.4372 32.3069 55.3512Z" fill="#BCCDD1"/>
</svg>
