<svg width="112" height="47" viewBox="0 0 112 47" fill="none" xmlns="http://www.w3.org/2000/svg">
<rect x="0.0812988" width="111.03" height="46.0444" rx="4" fill="#3C545F"/>
<path d="M9.15332 5.29736H102.038C103.695 5.29736 105.038 6.64051 105.038 8.29736V37.1329C105.038 38.7897 103.695 40.1329 102.038 40.1329H9.15332C7.49646 40.1329 6.15332 38.7897 6.15332 37.1329V8.29737C6.15332 6.64051 7.49647 5.29736 9.15332 5.29736Z" stroke="#BCCDD1" stroke-width="2"/>
<path d="M26.4091 30V18.3636H27.8182V23.5455H34.0227V18.3636H35.4318V30H34.0227V24.7955H27.8182V30H26.4091ZM38.7301 30H37.2528L41.5256 18.3636H42.9801L47.2528 30H45.7756L42.2983 20.2045H42.2074L38.7301 30ZM39.2756 25.4545H45.2301V26.7045H39.2756V25.4545ZM49.179 18.3636H50.5881V22.25C50.5881 22.8258 50.6884 23.2784 50.8892 23.608C51.09 23.9337 51.3741 24.1648 51.7415 24.3011C52.1089 24.4337 52.5426 24.5 53.0426 24.5C53.357 24.5 53.6619 24.4886 53.9574 24.4659C54.2528 24.4394 54.5407 24.4034 54.821 24.358C55.1051 24.3125 55.3816 24.2576 55.6506 24.1932C55.9233 24.1288 56.1903 24.0568 56.4517 23.9773V25.25C56.1979 25.3295 55.946 25.4015 55.696 25.4659C55.4498 25.5303 55.1922 25.5852 54.9233 25.6307C54.6581 25.6761 54.3722 25.7121 54.0653 25.7386C53.7585 25.7614 53.4176 25.7727 53.0426 25.7727C52.2396 25.7727 51.5483 25.6572 50.9688 25.4261C50.393 25.1951 49.9498 24.822 49.6392 24.3068C49.3324 23.7917 49.179 23.1061 49.179 22.25V18.3636ZM56.2699 18.3636H57.679V30H56.2699V18.3636ZM60.9801 30H59.5028L63.7756 18.3636H65.2301L69.5028 30H68.0256L64.5483 20.2045H64.4574L60.9801 30ZM61.5256 25.4545H67.4801V26.7045H61.5256V25.4545ZM69.3196 19.6136V18.3636H78.0469V19.6136H74.3878V30H72.9787V19.6136H69.3196ZM81.267 23.25H84.5852C85.4186 23.25 86.1212 23.3864 86.6932 23.6591C87.2689 23.9318 87.7045 24.3163 88 24.8125C88.2992 25.3087 88.4489 25.8939 88.4489 26.5682C88.4489 27.2424 88.2992 27.8371 88 28.3523C87.7045 28.8674 87.2689 29.2708 86.6932 29.5625C86.1212 29.8542 85.4186 30 84.5852 30H80.2216V18.3636H81.6307V28.7727H84.5852C85.1155 28.7727 85.5644 28.6667 85.9318 28.4545C86.303 28.2386 86.5833 27.9621 86.7727 27.625C86.9659 27.2841 87.0625 26.9242 87.0625 26.5455C87.0625 25.9886 86.8485 25.5095 86.4205 25.108C85.9924 24.7027 85.3807 24.5 84.5852 24.5H81.267V23.25Z" fill="#BCCDD1"/>
</svg>
