<svg width="149" height="56" viewBox="0 0 149 56" fill="none" xmlns="http://www.w3.org/2000/svg">
<rect y="0.387085" width="148" height="55" rx="8" transform="rotate(-0.149833 0 0.387085)" fill="#3C545F"/>
<path d="M8.79582 13.4974C8.78715 10.1837 11.4664 7.49042 14.7801 7.48176L133.257 7.17193C136.571 7.16327 139.264 9.84252 139.273 13.1562L139.346 41.1561C139.354 44.4698 136.675 47.1631 133.361 47.1718L14.8847 47.4816C11.571 47.4903 8.8777 44.811 8.86904 41.4973L8.79582 13.4974Z" stroke="#BCCDD1" stroke-width="4"/>
<path d="M41.4952 33.2787L41.4648 21.6424L42.8738 21.6387L42.8874 26.8205L49.0919 26.8043L49.0784 21.6225L50.4875 21.6188L50.5179 33.2551L49.1088 33.2588L49.0952 28.0543L42.8907 28.0705L42.9043 33.2751L41.4952 33.2787ZM53.8162 33.2465L52.3389 33.2504L56.5812 21.6029L58.0357 21.5991L62.3389 33.2242L60.8616 33.2281L57.3587 23.4418L57.2678 23.442L53.8162 33.2465ZM54.3497 28.6996L60.3043 28.6841L60.3075 29.9341L54.353 29.9496L54.3497 28.6996ZM64.2346 21.5829L65.6437 21.5792L65.6538 25.4655C65.6553 26.0413 65.7569 26.4937 65.9585 26.8227C66.1601 27.1479 66.4448 27.3782 66.8126 27.5136C67.1804 27.6453 67.6142 27.7104 68.1142 27.7091C68.4286 27.7083 68.7335 27.6961 69.0289 27.6726C69.3243 27.6453 69.6121 27.6086 69.8923 27.5624C70.1762 27.5162 70.4526 27.4606 70.7214 27.3955C70.9939 27.3304 71.2608 27.2577 71.5219 27.1775L71.5253 28.4502C71.2717 28.5304 71.02 28.603 70.7702 28.6681C70.5241 28.7331 70.2667 28.7887 69.9979 28.8349C69.7328 28.881 69.4469 28.9177 69.1402 28.9451C68.8334 28.9686 68.4926 28.9808 68.1176 28.9818C67.3145 28.9839 66.6229 28.8702 66.0428 28.6407C65.4664 28.4111 65.0223 28.0392 64.7103 27.5248C64.4022 27.0105 64.247 26.3253 64.2447 25.4692L64.2346 21.5829ZM71.3255 21.5643L72.7345 21.5606L72.765 33.197L71.3559 33.2006L71.3255 21.5643ZM76.0661 33.1883L74.5888 33.1922L78.8311 21.5447L80.2856 21.5409L84.5888 33.166L83.1115 33.1699L79.6086 23.3836L79.5177 23.3838L76.0661 33.1883ZM76.5997 28.6415L82.5542 28.6259L82.5575 29.8759L76.6029 29.8915L76.5997 28.6415ZM84.3784 22.7802L84.3751 21.5302L93.1024 21.5074L93.1056 22.7574L89.4466 22.7669L89.4737 33.1533L88.0646 33.157L88.0375 22.7706L84.3784 22.7802ZM96.3353 26.3853L99.6535 26.3766C100.487 26.3744 101.19 26.509 101.762 26.7802C102.339 27.0514 102.776 27.4348 103.072 27.9302C103.373 28.4256 103.524 29.0104 103.526 29.6847C103.528 30.3589 103.379 30.954 103.082 31.4699C102.787 31.9859 102.353 32.3904 101.778 32.6836C101.207 32.9768 100.504 33.1244 99.6711 33.1266L95.3075 33.138L95.2771 21.5017L96.6862 21.498L96.7134 31.9071L99.6679 31.8993C100.198 31.8979 100.647 31.7907 101.014 31.5776C101.384 31.3608 101.664 31.0835 101.852 30.7459C102.045 30.4045 102.14 30.0444 102.139 29.6656C102.138 29.1088 101.923 28.6302 101.494 28.2298C101.064 27.8256 100.452 27.6245 99.6567 27.6266L96.3386 27.6353L96.3353 26.3853Z" fill="#BCCDD1"/>
</svg>
