<svg width="197" height="75" viewBox="0 0 197 75" fill="none" xmlns="http://www.w3.org/2000/svg">
<rect width="197" height="75" rx="8" fill="#3C545F"/>
<rect x="11" y="9" width="175" height="56" rx="6" stroke="#BCCDD1" stroke-width="4"/>
<path d="M44.4659 47V26.6364H46.9318V35.7045H57.7898V26.6364H60.2557V47H57.7898V37.892H46.9318V47H44.4659ZM66.0277 47H63.4425L70.9197 26.6364H73.4652L80.9425 47H78.3572L72.272 29.858H72.1129L66.0277 47ZM66.9822 39.0455H77.4027V41.233H66.9822V39.0455ZM84.3132 26.6364H86.7791V33.4375C86.7791 34.4451 86.9548 35.2372 87.3061 35.8139C87.6574 36.384 88.1546 36.7884 88.7976 37.027C89.4406 37.259 90.1996 37.375 91.0746 37.375C91.6248 37.375 92.1584 37.3551 92.6754 37.3153C93.1925 37.2689 93.6963 37.206 94.1868 37.1264C94.6839 37.0469 95.1679 36.9508 95.6385 36.8381C96.1158 36.7254 96.5831 36.5994 97.0405 36.4602V38.6875C96.5964 38.8267 96.1555 38.9527 95.718 39.0653C95.2872 39.178 94.8364 39.2741 94.3658 39.3537C93.9018 39.4332 93.4013 39.4962 92.8643 39.5426C92.3274 39.5824 91.7308 39.6023 91.0746 39.6023C89.6693 39.6023 88.4595 39.4001 87.4453 38.9957C86.4377 38.5914 85.6622 37.9384 85.1186 37.0369C84.5817 36.1354 84.3132 34.9356 84.3132 33.4375V26.6364ZM96.7223 26.6364H99.1882V47H96.7223V26.6364ZM104.965 47H102.38L109.857 26.6364H112.403L119.88 47H117.295L111.21 29.858H111.05L104.965 47ZM105.92 39.0455H116.34V41.233H105.92V39.0455ZM119.559 28.8239V26.6364H134.832V28.8239H128.429V47H125.963V28.8239H119.559ZM140.467 35.1875H146.274C147.732 35.1875 148.962 35.4261 149.963 35.9034C150.971 36.3807 151.733 37.0535 152.25 37.9219C152.774 38.7902 153.036 39.8144 153.036 40.9943C153.036 42.1742 152.774 43.215 152.25 44.1165C151.733 45.018 150.971 45.724 149.963 46.2344C148.962 46.7448 147.732 47 146.274 47H138.638V26.6364H141.104V44.8523H146.274C147.202 44.8523 147.988 44.6667 148.631 44.2955C149.28 43.9176 149.771 43.4337 150.102 42.8438C150.44 42.2472 150.609 41.6174 150.609 40.9545C150.609 39.9801 150.235 39.1416 149.486 38.4389C148.737 37.7296 147.666 37.375 146.274 37.375H140.467V35.1875Z" fill="#BCCDD1"/>
</svg>
